<svg version="1.1" xmlns="http://www.w3.org/2000/svg" style="display: block;" viewBox="0 0 2048 484" width="2048" height="484" preserveAspectRatio="none">
<path transform="translate(0,0)" fill="rgb(0,110,199)" fill-opacity="0.988235" d="M 877.705 135.662 C 886.979 132.726 908.011 140.438 916.134 146.076 C 932.218 157.24 942.579 179.771 945.167 199.03 C 950.483 238.587 952.604 289.362 930.88 324.486 C 915.938 346.367 903.482 346.151 882.176 350 C 823.755 351.197 809.803 306.616 808.026 256.358 C 806.161 203.608 811.42 137.89 877.705 135.662 z M 878.815 317.681 C 887.097 315.278 894.675 313.839 898.519 305.217 C 911.388 276.359 908.356 238.242 906.064 207.362 C 904.758 189.783 899.017 169.972 878.553 168.707 C 871.409 169.092 866.261 170.508 861.199 176.216 C 846.458 192.837 847.856 234.397 848.345 255.969 C 848.691 271.216 851.716 299.974 862.896 311.23 C 866.407 314.765 873.84 316.608 878.815 317.681 z"/>
<path transform="translate(0,0)" fill="rgb(0,110,199)" fill-opacity="0.988235" d="M 1607.85 135.519 C 1638.56 135.337 1664.03 150.298 1672.45 181.661 C 1684.75 227.461 1691.36 332.612 1630.06 347.252 C 1625.28 348.395 1620.37 348.535 1615.84 350 C 1566.1 350.558 1546.69 322.993 1541.28 275.137 C 1537.1 238.254 1537.4 189.196 1560.05 157.855 C 1571.82 141.558 1588.95 137.768 1607.85 135.519 z M 1617.5 316.834 C 1626.02 312.349 1632.41 305.895 1634.91 295.124 C 1642.5 262.375 1643.09 210.851 1630.54 179.323 C 1629.21 176.005 1620.22 170.582 1617.31 169 L 1602.16 169 C 1570.82 183.762 1576.99 274.129 1588.19 302.048 C 1593.49 315.262 1604.83 317.612 1617.5 316.834 z"/>
<path transform="translate(0,0)" fill="rgb(0,110,199)" fill-opacity="0.988235" d="M 579.725 139.028 C 628.863 138.89 617.501 131.028 625.537 172.849 C 627.764 184.439 642.409 287.338 642.586 287.544 C 645.792 276.689 649.11 253.802 651.197 241.952 C 655.339 218.902 659.682 195.889 664.225 172.915 C 665.711 165.237 669.031 145.441 671.526 139.42 C 676.715 138.072 701.011 138.798 706.303 140.427 L 729.497 260.619 C 730.51 265.926 732.827 284.612 734.368 287.535 C 737.252 277.311 739.513 252.866 741.237 241.346 C 744.679 218.339 747.933 194.944 751.722 171.965 C 752.736 165.813 755.023 144.854 757.834 140.28 C 763.347 138.71 792.085 137.371 794.678 141.287 C 793.979 150.578 789.767 170.673 787.507 180.223 C 787.269 184.267 784.929 194.252 784.022 198.846 L 776.485 237.116 C 771.565 262.037 766.105 286.868 761.617 311.873 C 759.669 322.73 757.927 333.643 755.541 344.415 C 750.145 347.285 723.169 346.384 716.16 345.31 C 716.021 345.288 714.532 344.785 714.526 344.758 C 706.146 307.654 698.92 268.708 691.71 231.46 C 690.347 224.419 688.391 210.196 687.19 207.965 L 686.22 207.851 C 686.169 212.934 685.196 216.032 684.274 220.891 C 676.617 261.245 670.164 305.547 660.571 345.247 C 653.328 346.62 627.849 346.645 620.483 345.021 C 616.697 335.038 609.573 291.888 607.003 279.102 L 588.752 186.81 C 585.892 172.102 581.655 153.317 579.725 139.028 z"/>
<path transform="translate(0,0)" fill="rgb(0,110,199)" fill-opacity="0.988235" d="M 1692.83 139.135 C 1698.61 138.91 1727.88 138.688 1732.49 139.738 C 1734.62 146.929 1740.77 187.435 1741.87 196.472 C 1744.97 221.715 1752.98 258.175 1754.28 282.817 L 1756.15 284.124 L 1755.13 285.677 C 1759.57 283.195 1777.59 148.478 1784.96 139.587 C 1789.94 137.942 1812.95 138.778 1818.3 140.662 C 1820.32 145.843 1824.37 168.149 1825.6 174.397 L 1840.94 254.724 C 1842.65 263.85 1844.43 278.793 1846.49 286.676 C 1850.02 284.899 1863.75 156.128 1869.44 140.794 C 1873.87 137.742 1902.48 138.365 1907.56 140.814 C 1907.44 145.811 1901.91 170.105 1900.65 177.278 C 1894.93 211.256 1886.18 246.738 1880.07 280.95 C 1877.52 295.248 1871.35 333.003 1866.77 345.211 C 1860.58 347.078 1834.56 346.14 1827.45 344.9 C 1823.86 341.928 1804.33 223.075 1799.53 208.195 C 1798.64 209.984 1796.41 225.689 1795.79 228.901 L 1787.11 276.643 C 1786.87 277.915 1785.3 283.038 1784.86 284.516 C 1780.86 297.807 1778.5 334.326 1772.71 344.963 C 1768.39 346.908 1739.2 346.19 1733.48 345.324 C 1731.09 339.591 1724.84 303.743 1723.23 295.718 L 1692.83 139.135 z"/>
<path transform="translate(0,0)" fill="rgb(0,110,199)" fill-opacity="0.988235" d="M 976 139 C 1002.57 138.906 1034.12 137.432 1059.97 140.458 C 1093.68 144.404 1108.17 179.412 1101.89 209.705 C 1098.31 227.006 1092.28 233.638 1077.95 243.447 C 1110.12 264.254 1095.86 302.824 1101.47 334.75 C 1101.75 336.328 1102.54 344.227 1102.03 345.391 C 1091.71 347.279 1076.28 346.157 1065.47 345.868 C 1061.77 345.768 1062.89 329.717 1061 325.67 C 1061.03 308.106 1066.04 264.135 1043.62 260.284 C 1038.81 259.458 1018.87 257.441 1015.6 260.473 C 1013.78 283.072 1015.06 322.101 1015.13 345.903 C 1008.71 346.718 983.467 346.14 976 345.951 L 976 139 z M 1055.61 221.353 C 1066.86 214.855 1067.56 174.854 1047.88 171.845 C 1034.84 169.851 1028.61 169.896 1015.12 170 C 1015.07 178.408 1013.6 222.483 1016.85 226.717 C 1025.46 230.275 1047.6 226.521 1055.61 221.353 z"/>
<path transform="translate(0,0)" fill="rgb(0,110,199)" fill-opacity="0.988235" d="M 1131 139 L 1170 139 L 1170.08 230.313 C 1182.39 206.085 1209.65 162.766 1224.45 139 C 1235.17 138.926 1258.28 138.192 1267.99 139.327 C 1268.59 143.536 1254.2 162.511 1250.87 167.557 L 1215.14 222.483 C 1227.8 250.601 1242.79 286.79 1256.47 313.698 C 1258.21 319.933 1270.41 341.837 1270.09 345.37 C 1264.96 346.771 1227.53 346.453 1226.69 345.391 C 1221.33 338.616 1191.79 258.374 1186.91 254.549 C 1182.83 258.761 1173.55 273.401 1170 278.904 C 1170.02 296.266 1170.94 329.203 1169.53 345.112 C 1166.44 347.456 1137.45 346.173 1131 346.36 L 1131 139 z"/>
<path transform="translate(0,0)" fill="rgb(0,110,199)" fill-opacity="0.988235" d="M 1286 139 L 1396 139 L 1396 172 L 1325.09 172 C 1324.95 189.333 1324.99 206.668 1325.22 224 L 1390.99 224 L 1390.99 257 L 1345.5 257 L 1325.03 257 C 1325.34 283.009 1326.39 318.735 1325.36 344.248 L 1323.21 345.603 C 1315.97 346.007 1291.93 347.758 1286.69 344.712 C 1285.67 339.419 1286.61 328.56 1286.55 322.705 C 1285.85 261.489 1286.05 200.226 1286 139 z"/>
<path transform="translate(0,0)" fill="rgb(0,110,199)" fill-opacity="0.988235" d="M 1419 139 L 1459 139 L 1459 313 C 1468.7 312.985 1526.79 311.913 1529.71 314.979 C 1530.28 320.633 1528.04 337.068 1527.67 344.728 C 1524.93 347.315 1431.02 346.032 1419 346.202 L 1419 139 z"/>
<path transform="translate(0,0)" fill="rgb(0,110,199)" fill-opacity="0.988235" d="M 229.282 0 L 245.743 0 C 251.738 1.10832 268.313 0.322333 270.198 3.56193 C 272.98 8.34097 275.587 36.5482 277.623 39.6417 C 283.332 41.1542 289.94 41.7694 294.651 43.269 C 335.302 56.2078 375.193 80.9256 396.787 118.689 C 397.453 119.875 397.997 121.126 398.41 122.422 C 392.59 127.538 364.339 137.058 363.685 141.824 C 370.382 149.298 404.482 163.967 404.806 169.087 C 405.452 179.297 364.553 242.837 359.006 250.976 C 359.207 207.781 354.118 176.355 321.574 143.526 C 299.38 121.352 269.308 108.871 237.935 108.812 C 203.993 108.704 171.45 120.962 147.286 145.07 C 121.889 170.418 107.669 204.86 107.786 240.742 C 107.791 274.545 120.304 308.368 144.401 332.398 C 167.536 355.197 198.694 368.008 231.175 368.076 C 275.762 367.901 309.353 345.544 337.012 312.388 C 362.481 281.858 384.16 248.23 404.728 214.301 C 408.14 208.672 410.49 202.535 413.73 196.822 C 419.419 186.106 427.244 174.292 431.693 163.263 C 428.917 155.8 404.244 147.646 405.217 142.629 C 412.934 137.017 425.985 131.836 434.719 127.099 C 458.246 114.34 487.017 102.333 509.956 89.322 C 510.034 128.468 516.015 176.046 515 213.817 C 509.543 210.362 490.243 197.512 485.403 195.699 C 483.765 196.918 443.121 268.179 441.253 276.013 C 440.646 278.558 441.219 306.145 441.064 311.582 C 440.567 328.932 443.366 473.786 440.132 479.714 C 434.765 482.551 402.508 481.176 395.133 480.39 C 347.455 475.304 359.902 421.014 359.001 389.499 C 333.083 415.451 311.13 426.224 279.001 439.864 C 274.449 441.796 274.921 476.67 269.328 480.617 C 265.225 482.97 246.833 482.171 241.759 484 L 230.213 484 C 226.521 482.687 222.295 482.97 218.423 482.988 C 204.226 483.054 210.061 450.008 202.355 442.672 C 202.245 442.567 172.344 435.503 170.636 435.41 C 162.835 441.692 153.28 457.696 144.306 466.262 C 133.953 460.951 104.152 445.674 97.0884 437.846 C 95.1062 432.595 106.399 408.095 108.392 398.664 C 108.097 396.237 87.8478 377.303 84.4411 373.941 C 78.5135 377.024 53.2778 388.274 47.2899 386.803 C 39.6666 381.011 23.785 347.728 19.1114 338.389 C 46.6525 310.03 51.3049 321.407 38.7778 279.266 C 38.1683 277.215 7.87741 273.02 3.39644 270.775 C 1.056 267.202 1.77499 266.544 1.52406 261.748 L 0 261.176 L 0 226.207 C 0.712436 223.813 1.92778 216.472 2.68847 213.317 C 8.22925 208.427 29.573 208.598 38.3711 205.055 C 40.9995 201.043 43.3475 188.089 45.0564 182.947 C 53.0315 158.947 28.1041 160.512 20.6506 143.561 C 22.2566 135.037 41.5661 102.332 48.2077 95.869 C 53.7265 94.2697 78.5075 106.166 84.4484 109.072 C 84.6229 108.902 84.7938 108.729 84.961 108.553 C 91.8118 101.336 102.275 90.4188 108.196 82.9681 C 110.968 79.4785 97.4666 52.0372 97.3528 44.8211 C 100.626 38.2479 136.355 21.2403 145.218 16.7077 C 149.632 20.7859 168.942 48.9627 173.668 46.3004 C 178.544 43.5529 203.401 40.314 204.061 39.3107 C 209.602 30.8877 207.01 11.8318 212.73 2.55842 C 213.637 0.967739 226.528 0.522001 229.282 0 z"/>
<path transform="translate(0,0)" fill="rgb(0,110,199)" fill-opacity="0.988235" d="M 2048 296.746 C 2041.39 328.631 2030.04 345.606 1995.25 349.446 C 1964.49 352.842 1930.95 343.345 1922.53 310.033 C 1921.09 304.321 1916.11 290.65 1919.56 286.574 C 1929.66 285.726 1941.06 286.161 1951.18 286.855 C 1952.57 286.95 1955.42 286.882 1956.58 287.433 C 1957.23 287.742 1961.97 307.668 1965.83 312.003 C 1969.96 316.64 1975.91 318.459 1981.96 318.759 C 1988.58 319.087 1998.34 317.469 2003.32 312.67 C 2006.43 309.678 2008.29 296.415 2008.32 292.217 C 2008.53 259.877 1957.3 253.156 1937.58 233.116 C 1927.02 222.385 1922.89 208.021 1923.02 193.273 C 1923.14 179.019 1928.13 161.54 1938.51 151.444 C 1951.52 138.79 1969.03 135.442 1986.58 135.749 C 2002.66 136.031 2017.84 140.652 2029.23 152.482 C 2040.69 164.398 2044.3 179.905 2044 196 C 2039.45 195.933 2009.56 197.095 2006.77 195.007 C 2006.77 195.01 2002.52 173.065 1997.35 170.614 C 1991.09 167.65 1983.37 165.627 1976.53 167.022 C 1971.51 168.048 1967.24 173.542 1964.7 177.379 C 1961.39 182.382 1960.36 188.426 1961.72 194.253 C 1966.82 216.04 1999.99 221.959 2017.97 233.968 C 2038.65 247.776 2042.33 254.006 2048 278.196 L 2048 296.746 z"/>
</svg>